# Blender 5.1.0
# www.blender.org
mtllib goal.mtl
o SIGN
v 0.000000 -0.000000 -0.500000
v 0.037446 -6.499452 -0.000000
v 0.037446 -6.499452 0.061666
v 0.037446 0.041183 0.000000
v 0.037446 0.041183 0.061666
v 7.101330 -6.499452 -0.000000
v 7.101330 -6.499452 0.061666
v 7.101330 0.041183 0.000000
v 7.101330 0.041183 0.061666
vn -1.0000 -0.0000 -0.0000
vn -0.0000 1.0000 -0.0000
vn 1.0000 -0.0000 -0.0000
vn -0.0000 -1.0000 -0.0000
vn -0.0000 -0.0000 -1.0000
vn -0.0000 -0.0000 1.0000
vt 0.375000 0.000000
vt 0.625000 0.000000
vt 0.625000 0.250000
vt 0.375000 0.250000
vt 0.625000 0.500000
vt 0.375000 0.500000
vt 0.625000 0.750000
vt 0.375000 0.750000
vt 0.625000 1.000000
vt 0.375000 1.000000
vt 0.125000 0.500000
vt 0.125000 0.750000
vt 0.000096 0.999904
vt 0.000096 0.000096
vt 0.925844 0.000096
vt 0.925844 0.999904
s 0
usemtl Material.001
f 2/1/1 3/2/1 5/3/1 4/4/1
f 4/4/2 5/3/2 9/5/2 8/6/2
f 8/6/3 9/5/3 7/7/3 6/8/3
f 6/8/4 7/7/4 3/9/4 2/10/4
f 4/11/5 8/6/5 6/8/5 2/12/5
f 9/13/6 5/14/6 3/15/6 7/16/6
